<svg fill="none" height="110" viewBox="0 0 108 110" width="108" xmlns="http://www.w3.org/2000/svg" xmlns:xlink="http://www.w3.org/1999/xlink"><linearGradient id="a"><stop offset="0" stop-color="#a470ff"/><stop offset=".799087" stop-color="#a470ff"/><stop offset="1" stop-color="#5f2abf"/></linearGradient><linearGradient id="b" gradientUnits="userSpaceOnUse" x1="38.4386" x2="16.4721" xlink:href="#a" y1="14.8691" y2="14.8691"/><linearGradient id="c"><stop offset="0" stop-color="#ff91ff"/><stop offset=".139816" stop-color="#ffe6f6"/><stop offset=".34813" stop-color="#ffe6f6"/><stop offset=".786337" stop-color="#fff"/><stop offset="1" stop-color="#fff"/></linearGradient><linearGradient id="d" gradientUnits="userSpaceOnUse" x1="94.324" x2="52.129" xlink:href="#c" y1="63.8152" y2="63.8152"/><linearGradient id="e" gradientUnits="userSpaceOnUse" x1="89.2563" x2="40.9581" xlink:href="#a" y1="84.2672" y2="84.2672"/><linearGradient id="f"><stop offset="0" stop-color="#fff"/><stop offset=".516096" stop-color="#ffe6f6"/><stop offset=".805655" stop-color="#ffe6f6"/><stop offset="1" stop-color="#ff91ff"/></linearGradient><linearGradient id="g" gradientUnits="userSpaceOnUse" x1="58.9276" x2="64.7776" xlink:href="#f" y1="93.2515" y2="37.4663"/><linearGradient id="h" gradientUnits="userSpaceOnUse" x1="36.3919" x2="42.2401" xlink:href="#f" y1="90.8764" y2="35.0997"/><linearGradient id="i" gradientUnits="userSpaceOnUse" x1="67.2715" x2="73.0912" xlink:href="#f" y1="94.0185" y2="38.4103"/><linearGradient id="j" gradientUnits="userSpaceOnUse" x1="66.8469" x2="72.6968" xlink:href="#f" y1="94.072" y2="38.3047"/><linearGradient id="k" gradientUnits="userSpaceOnUse" x1="3.23271" x2="9.08269" xlink:href="#f" y1="87.4104" y2="31.6254"/><linearGradient id="l" gradientUnits="userSpaceOnUse" x1="30.4077" x2="36.2579" xlink:href="#f" y1="90.2614" y2="34.4755"/><linearGradient id="m" gradientUnits="userSpaceOnUse" x1="67.0293" x2="72.8816" xlink:href="#f" y1="94.0965" y2="38.3196"/><linearGradient id="n" gradientUnits="userSpaceOnUse" x1="71.7535" x2="2.94693" xlink:href="#a" y1="58.2345" y2="58.2345"/><linearGradient id="o" gradientUnits="userSpaceOnUse" x1="71.7983" x2="2.89621" xlink:href="#a" y1="39.8646" y2="39.8646"/><linearGradient id="p" gradientUnits="userSpaceOnUse" x1="71.7532" x2="2.89718" xlink:href="#a" y1="21.107" y2="21.107"/><linearGradient id="q" gradientUnits="userSpaceOnUse" x1="71.752" x2="2.89651" xlink:href="#a" y1="45.1055" y2="45.1055"/><linearGradient id="r" gradientUnits="userSpaceOnUse" x1="71.7528" x2="2.89689" xlink:href="#a" y1="23.4659" y2="23.4659"/><linearGradient id="s" gradientUnits="userSpaceOnUse" x1="31.5394" x2="37.3897" xlink:href="#f" y1="90.3805" y2="34.5939"/><linearGradient id="t" gradientUnits="userSpaceOnUse" x1="71.7533" x2="2.89724" xlink:href="#a" y1="37.2299" y2="37.2299"/><linearGradient id="u" gradientUnits="userSpaceOnUse" x1="74.9897" x2="52.8293" y1="34.9711" y2="34.9711"><stop offset="0" stop-color="#5f2abf"/><stop offset=".200913" stop-color="#a470ff"/><stop offset="1" stop-color="#a470ff"/></linearGradient><linearGradient id="v" gradientUnits="userSpaceOnUse" x1="106.667" x2="65.3714" xlink:href="#c" y1="90.504" y2="90.504"/><path d="m79.313 85.2246c0 5.2021 4.2201 9.4194 9.4262 9.4194 5.2056 0 9.4257-4.2173 9.4257-9.4194 0-5.2027-4.2201-9.42-9.4257-9.42-5.2061 0-9.4262 4.2173-9.4262 9.42z" fill="#faf"/><path d="m88.7396 77.8718c-4.8561 0-8.851 3.6704-9.3667 8.3863-.0368-.34-.0595-.684-.0595-1.0338 0-5.2021 4.2201-9.42 9.4262-9.42 5.2055 0 9.4262 4.2179 9.4262 9.42 0 .3498-.0227.6938-.0595 1.0338-.5157-4.7159-4.5106-8.3863-9.3667-8.3863z" fill="#fff"/><path d="m26.6215 6.73018c5.9313 2.55091 9.7191 7.11552 11.8178 10.40522l-21.9669 6.1484c.9142-7.8393 4.1133-12.9836 6.1279-15.5287.664-.83728 1.6646-1.2988 2.688-1.2988.4487 0 .902.08905 1.3332.27388z" fill="url(#b)"/><path d="m33.2619 17.4072c-1.6663-4.3083-4.5865-8.12389-8.3112-10.85905 5.0836 2.09321 10.3224 6.04115 13.1953 10.72665-1.7346.3119-3.2049.667-4.8841.1324z" fill="#00e0ff"/><path d="m79.3137 85.2246c0 5.2021 4.2201 9.4194 9.4262 9.4194 5.2055 0 9.4256-4.2173 9.4256-9.4194 0-5.2027-4.2201-9.42-9.4256-9.42-5.2061 0-9.4262 4.2173-9.4262 9.42z" stroke="#00005a" stroke-linecap="round" stroke-linejoin="round" stroke-miterlimit="10" stroke-width="1.5"/><path d="m93.6339 55.6669c1.9738 4.9363-.43 10.5355-5.3695 12.5086l-22.9291 9.1554c-4.9395 1.9713-10.5424-.4316-12.5162-5.366-1.9738-4.9363.43-10.5355 5.3695-12.5086l22.929-9.1554c1.1722-.4682 2.3811-.6895 3.5708-.6895 3.8233 0 7.4402 2.2907 8.9455 6.0555z" fill="url(#d)"/><path d="m92.9695 58.3225c-1.9732-4.9362-7.5773-7.3384-12.5162-5.3659l-22.929 9.1553c-2.5287 1.0099-4.387 2.9736-5.3392 5.3088.3536-3.4482 2.559-6.5892 6.0037-7.9647l22.9291-9.1559c4.9389-1.9719 10.5423.4304 12.5161 5.366.9627 2.4086.877 4.973-.0303 7.1991.1535-1.4961-.0373-3.0494-.6342-4.5427z" fill="#fff"/><path d="m65.3352 77.3305 22.929-9.1559c4.939-1.9719 7.3434-7.5717 5.3695-12.5079-1.9732-4.9357-7.5766-7.3379-12.5161-5.366l-22.9291 9.1559c-4.9389 1.9719-7.3427 7.5717-5.3695 12.5079 1.9732 4.9357 7.5773 7.3379 12.5162 5.366z" stroke="#00005a" stroke-linecap="round" stroke-linejoin="round" stroke-miterlimit="10" stroke-width="1.5"/><path d="m53.1101 72.2375 6.2913-2.8267c5.8684-2.6361 9.9064-8.1734 10.6217-14.5632" stroke="#00005a" stroke-linecap="round" stroke-linejoin="round" stroke-miterlimit="10" stroke-width="1.5"/><path d="m89.2565 84.2664c0 13.3301-10.8113 24.1346-24.1502 24.1346-13.3371 0-24.1484-10.8045-24.1484-24.1346 0-13.3277 10.8113-24.1323 24.1484-24.1323 13.3389 0 24.1502 10.8046 24.1502 24.1323z" fill="url(#e)"/><path d="m85.7781 85.2803c0-13.3283-10.8119-24.1331-24.149-24.1331-1.7183 0-3.3928.1825-5.0095.523 2.6407-.9906 5.4996-1.5369 8.4868-1.5369 13.3371 0 24.1491 10.8047 24.1491 24.1336 0 11.6118-8.2068 21.3051-19.1396 23.6101 9.1491-3.434 15.6622-12.2537 15.6622-22.5967z" fill="#00e0ff"/><path d="m40.9574 84.2665c0 13.3283 10.812 24.1335 24.1491 24.1335s24.149-10.8052 24.149-24.1335-10.8119-24.1337-24.149-24.1337-24.1491 10.8054-24.1491 24.1337z" stroke="#00005a" stroke-linecap="round" stroke-linejoin="round" stroke-miterlimit="10" stroke-width="1.5"/><path d="m69.1891 39.5165c-1.7276-2.941-3.8117-7.6793-7.9717-12.0587 3.4896 3.4488 6.1834 7.5709 7.9717 12.0587z" fill="url(#g)"/><path d="m48.6322 19.4747c-2.6897-.9393-5.7557-1.6585-9.2634-2.08 3.0999.2635 6.2114.95 9.2634 2.08z" fill="url(#h)"/><path d="m70.7867 60.5646c.007-.0274.0128-.0557.0186-.0843-.0058.0286-.0116.0569-.0186.0843z" fill="url(#i)"/><path d="m69.9622 63.4777c-.0012-.0087 0-.0203-.0012-.0284.1003-.3026.2035-.6021.2957-.9076-.0922.3125-.1925.6247-.2945.936z" fill="url(#j)"/><path d="m4.05358 38.3993c2.32447-5.3071 5.80825-9.7672 10.03882-13.2038-5.86481 5.2901-9.18873 11.4925-10.03882 13.2038z" fill="url(#k)"/><path d="m27.1963 41.7929 13.064-9.1781 27.1124 24.5781c-.283 1.5877-.6593 3.1598-1.1232 4.7055-6.0317-.6874-11.4904 3.6253-12.2052 9.6565-.3127 2.6465.3635 5.4071 1.9073 7.5884-2.517 2.5328-5.3526 4.7469-8.4343 6.5515 3.6279-1.2256 7.086-3.0687 10.1876-5.3917.3833-.095.8034-.3828 1.3513-.7874.4638-.3446.9136-.7116 1.3582-1.0819-9.6963 8.9798-24.0609 12.1296-37.1489 6.8943-17.48307-6.9915-26.28971-26.382-20.35251-43.9975-.05951.4653.09335.6971.72173.2773l15.15398-11.1904z" fill="url(#l)"/><path d="m1.86727 46.0335c2.77723 1.8915 4.59409 5.1217 4.76796 8.476.17387 3.3544-1.29935 6.7548-3.86653 8.9233-2.018741-5.5491-2.176272-11.6339-.90143-17.3993z" fill="#faf"/><path d="m47.076 61.5804c-2.405.5015-4.5929 1.9737-5.9635 4.0115-1.3699 2.0378-1.9073 4.6185-1.4632 7.033 2.3466-.533 4.4867-1.8396 5.8776-3.8022 1.391-1.9626 1.8257-4.8529 1.5491-7.2423z" fill="#ff77ad"/><path d="m47.0631 61.3542c-2.4353.5784-4.6314 2.1055-6.0206 4.1865-1.3892 2.0803-1.9575 4.6931-1.5572 7.1623" stroke="#00005a" stroke-linecap="round" stroke-linejoin="round" stroke-miterlimit="10" stroke-width="1.5"/><path d="m70.4076 62.0101c.0326-.1213.0647-.2432.0979-.3645-.0326.1213-.0647.2432-.0979.3645zm-.13.4669c.0454-.1557.088-.3107.13-.4669-.0414.1562-.084.3118-.13.4669z" fill="url(#m)"/><path d="m69.1735 65.6768c.2917-.7288.5484-1.4635.7888-2.1993.0093.0775.0152.1574.0099.2437-.0951 1.5574-1.1879 3.4914-1.8618 4.8727-1.5006 3.0762-3.5322 5.8936-5.9763 8.2906-.5513.5399-1.1289 1.0524-1.7205 1.5486 3.7177-3.4436 6.7511-7.7408 8.7599-12.7563z" fill="#faf"/><path d="m57.7041 80.3033c4.1483-3.1077 7.6519-7.0784 10.0394-11.61.8863-1.6827 1.6202-3.4401 2.2177-5.2435.0012.0081 0 .0192.0012.028-.2404.7358-.4971 1.4705-.7889 2.1993-2.0088 5.0155-5.0422 9.3127-8.7599 12.7563-.4434.3714-.8927.737-1.3583 1.081-.5461.4058-.9673.6944-1.3512.7889z" fill="#faf"/><path d="m55.9519 79.1436c-1.5444-2.1818-2.2212-4.9415-1.9073-7.5892.7141-6.03 6.1729-10.3424 12.204-9.6555-.6919 2.3043-1.5805 4.5491-2.6646 6.6965-1.9639 3.8908-4.5591 7.4574-7.6321 10.5482z" fill="#faf"/><path d="m71.4258 57.9054c0 .9119-.1685 1.3858-.4029 1.6109.1767-.8484.3195-1.7023.4338-2.5623-.0181.3562-.0309.6774-.0309.9514z" fill="url(#n)"/><path d="m3.60149 39.45c-.25046.6233-.47701 1.2516-.68953 1.8807.10626-.8437.91898-2.4717.91898-2.4717s.07531-.1639.22244-.4596c-.15297.3493-.31001.6938-.45189 1.0506z" fill="url(#o)"/><path d="m35.6632 17.0636c1.2918.0706 2.5182.1863 3.7055.3309-9.1829-.7819-18.2509 2.0966-25.2763 7.8007 4.8853-4.4062 11.532-8.176 19.9827-8.176.5222 0 1.0513.0147 1.5881.0444z" fill="url(#p)"/><path d="m69.2626 39.6451c2.0053 3.3725 2.4791 7.4814 2.489 11.0504-.1103-2.7264-.5303-5.4383-1.2748-8.0656-.0508.0595-.1074.1115-.164.164-.3215-1.1113-.696-2.204-1.1237-3.2775.0239.042.0496.0873.0735.1287z" fill="url(#q)"/><path d="m61.2174 27.4579c-3.2545-3.2162-7.1904-5.8509-11.7081-7.6578-.2917-.1172-.5846-.2185-.8775-.3252 5.6426 1.9667 9.6398 4.8811 12.5856 7.983z" fill="url(#r)"/><path d="m39.3688 17.3949c3.5077.4215 6.5737 1.1407 9.2634 2.08.2929.1067.5858.2079.8775.3251 4.5177 1.8069 8.4537 4.4417 11.7082 7.6579 4.16 4.3794 6.2441 9.1177 7.9717 12.0587.4276 1.0734.8022 2.1662 1.1237 3.2775-.6354.6128-1.4884.8643-2.083 1.5442l-.4358 1.1821c.416 3.8844.2632 7.8268-.4218 11.6727l-27.1124-24.5782-13.064 9.1782-8.4076-11.3755-15.15398 11.1904c-.62838.4198-.78124.188-.72173-.2773.21238-.6291.43877-1.2574.68907-1.8807.14178-.3568.29872-.7013.45158-1.0505.85009-1.7113 4.17401-7.9137 10.03886-13.2039 6.2651-5.0866 14.1563-7.9271 22.3036-7.9271.9883 0 1.9796.0418 2.9727.1264z" fill="url(#s)"/><path d="m39.3688 17.3949c3.5077.4215 6.5737 1.1407 9.2634 2.08.2929.1067.5858.2079.8775.3251 4.5177 1.8069 8.4537 4.4417 11.7082 7.6579 4.16 4.3794 6.2441 9.1177 7.9717 12.0587.4276 1.0734.8022 2.1662 1.1237 3.2775-.6354.6128-1.4884.8643-2.083 1.5442l-.4358 1.1821c.416 3.8844.2632 7.8268-.4218 11.6727l-27.1124-24.5782-13.064 9.1782-8.4076-11.3755-15.15398 11.1904c-.62838.4198-.78124.188-.72173-.2773.21238-.6291.43877-1.2574.68907-1.8807.14178-.3568.29872-.7013.45158-1.0505.85009-1.7113 4.17401-7.9137 10.03886-13.2039 6.2651-5.0866 14.1563-7.9271 22.3036-7.9271.9883 0 1.9796.0418 2.9727.1264z" fill="url(#t)"/><g fill="#00e0ff"><path d="m71.0219 59.5156c-.067.3225-.1399.6437-.2163.9638.0723-.3131.1312-.6274.1947-.941.0076-.007.0146-.0158.0216-.0228z"/><path d="m70.2574 62.5417c.0064-.0216.014-.0432.0204-.0647-.0064.0215-.014.0431-.0204.0647z"/><path d="m71.6989 53.0611c.0339-.7493.056-1.5428.0537-2.3661.0851 2.0891-.0175 4.1852-.2956 6.2586.0093-.1656.0192-.3382.0309-.5201.1253-1.1259.1953-2.2512.211-3.3724z"/><path d="m70.5061 61.6444c.0962-.3597.1965-.7189.2804-1.0804-.0862.3627-.1825.7212-.2804 1.0804z"/></g><path d="m66.2972 61.9022c-.0163-.0018-.0321-.0012-.0484-.0035.465-1.5451.8402-3.1177 1.1237-4.7065l2.087 1.892s.9639.9592 1.5409.4542c-.0636.3137-.1219.628-.1948.9417-.0065.028-.0123.0565-.0187.0845-.0846.3609-.185.7201-.2812 1.0805-.0759.2769-.1459.5568-.2282.832-.0064.0216-.014.0437-.021.0653-.0916.3043-.1954.6052-.2952.9072-.192-1.3463-2.5106-1.411-3.6641-1.5474z" fill="#fff"/><path d="m71.4886 56.4338c.0612-.9428.1527-2.0932.211-3.3725-.0157 1.1213-.0862 2.246-.211 3.3725z" fill="#00e0ff"/><path d="m57.7036 80.303c-3.0999 2.3223-6.5586 4.166-10.1877 5.391 3.0818-1.8046 5.9185-4.0185 8.4361-6.5507.0595.0845.1115.1749.1745.2571.6033.7994 1.056 1.0309 1.5771.9026z" fill="#fff"/><path d="m69.9614 63.449c-.5975 1.8034-1.3315 3.5607-2.2177 5.2435-2.3875 4.5321-5.8917 8.5022-10.0395 11.61-.521.1282-.9737-.1026-1.5776-.9026-.0624-.0822-.1144-.172-.1745-.2571 3.0731-3.0909 5.6683-6.6575 7.6322-10.5483 1.084-2.1474 1.9726-4.3922 2.6652-6.6965.0163.0023.0315.0018.0478.0035 1.1535.1365 3.4721.2006 3.6641 1.5475z" fill="#fff"/><path d="m70.3136 42.7945c.0554-.0537.1126-.105.1645-.1645.7433 2.6268 1.1628 5.3392 1.2743 8.0656.0023.8227-.0193 1.6162-.0531 2.3655.0484-3.5007-.4295-6.9577-1.3857-10.2666z" fill="#00e0ff"/><path d="m71.4879 56.4338c-.0116.1819-.0221.3539-.0309.5201-.1154.8588-.2577 1.713-.4343 2.5614-.0076.007-.014.0157-.0216.0227.2099-1.0338.372-2.0693.4868-3.1042z" fill="#00e0ff"/><path d="m67.7946 45.5197.4365-1.1813c.5933-.681 1.4469-.9329 2.0823-1.5439.9569 3.3089 1.4341 6.7659 1.3857 10.2672-.0583 1.2792-.1499 2.4296-.2112 3.3724-.1149 1.035-.2771 2.0705-.4872 3.1043-.577.5043-1.5409-.4543-1.5409-.4543l-2.087-1.892c.6856-3.8459.8373-7.7874.4218-11.6724z" fill="#00e0ff"/><path d="m72.773 24.7418c1.4417.5347 2.3431 1.9838 2.2025 3.515-.3448 3.7362-1.9452 11.0833-8.7838 18.4445l-13.3622-21.1834s4.8671-2.2764 11.323-2.2764c2.678 0 5.6292.3919 8.6205 1.5003z" fill="url(#u)"/><path d="m65.6227 46.7052c3.9827-6.6912 5.7698-14.6629 5.0247-22.4118 1.2889-.4822 2.8117.6483 3.3648 1.9072.5531 1.2594.4072 2.7071.1593 4.0599-1.1168 6.0936-4.1513 12.0787-8.5488 16.4447z" fill="#00e0ff"/><path d="m52.8293 25.5189s9.7424-4.5578 19.9429-.7766c1.4423.5346 2.3443 1.9835 2.2031 3.5141-.3454 3.7369-1.9446 11.0835-8.7833 18.4447" stroke="#00005a" stroke-linecap="round" stroke-linejoin="round" stroke-miterlimit="10" stroke-width="1.5"/><path d="m38.4391 17.1363c-2.0987-3.2903-5.8853-7.85569-11.8173-10.40543-1.4131-.60697-3.0666-.17959-4.0205 1.02503-2.0153 2.5445-5.2143 7.6895-6.1286 15.5276" stroke="#00005a" stroke-linecap="round" stroke-linejoin="round" stroke-miterlimit="10" stroke-width="1.5"/><path d="m56.9697 23.8757c-2.265-1.6197-4.7586-2.9963-7.46-4.0762-18.1074-7.2428-38.6612 1.5551-45.90828 19.6505-7.24704 18.0949 1.55665 38.6357 19.66348 45.8785 18.1074 7.2417 38.6612-1.5556 45.9088-19.6516 3.1542-7.8749 3.2679-16.2139.8974-23.718" stroke="#00005a" stroke-linecap="round" stroke-linejoin="round" stroke-miterlimit="10" stroke-width="1.5"/><path d="m74.0071 13.9061c-2.7877 3.1765-7.6245 3.4937-10.8031.7078-3.1787-2.7853-3.4961-7.6195-.7083-10.79604 2.7877-3.176541 7.6245-3.493729 10.8031-.70842 3.1787 2.78646 3.4961 7.62006.7083 10.79666z" fill="#ff77ad"/><path d="m74.0071 13.9061c-2.7877 3.1765-7.6245 3.4937-10.8031.7078-3.1787-2.7853-3.4961-7.6195-.7083-10.79604 2.7877-3.176541 7.6245-3.493729 10.8031-.70843 3.1787 2.78647 3.4961 7.62007.7083 10.79667z" stroke="#00005a" stroke-linecap="round" stroke-linejoin="round" stroke-miterlimit="10" stroke-width="1.5"/><path d="m51.9791 20.4633c1.3436-4.1007 5.153-7.2842 9.4297-7.8818" stroke="#00005a" stroke-linecap="round" stroke-linejoin="round" stroke-miterlimit="10" stroke-width="1.5"/><path d="m70.528 59.6308-30.2671-27.0158-13.0647 9.1775-8.4075-11.3751-16.05073 12.0007" stroke="#00005a" stroke-linecap="round" stroke-linejoin="round" stroke-miterlimit="10" stroke-width="1.5"/><path d="m10.2203 48.0327c-.3524 3.2623.923 6.0755 2.8496 6.2831 1.926.2082 3.7737-2.2681 4.1261-5.5304.3524-3.2628-.9236-6.0761-2.8495-6.2837-1.9266-.2081-3.7738 2.2682-4.1262 5.531z" fill="#00005a"/><path d="m30.6617 50.0967c-.3524 3.2628.9236 6.0755 2.8496 6.2831 1.926.2081 3.7737-2.2676 4.1262-5.5304.3524-3.2628-.9237-6.0761-2.8496-6.2837-1.926-.2081-3.7738 2.2681-4.1262 5.531z" fill="#00005a"/><path d="m45.3646 56.1832c4.0789 6.5962 1.3787 12.8099-2.325 15.2617-3.7032 2.4512-10.8435 2.5818-14.9685-3.8138z" stroke="#00005a" stroke-linecap="round" stroke-linejoin="round" stroke-miterlimit="10" stroke-width="1.5"/><path d="m2.72172 63.357c1.28651-1.1137 2.3338-2.5428 3.00944-4.2313 1.92539-4.8068.22521-10.1652-3.80469-13.0537" stroke="#00005a" stroke-linecap="round" stroke-linejoin="round" stroke-miterlimit="10" stroke-width="1.5"/><path d="m57.0673 80.5126c-2.22-2.2984-3.4277-5.538-3.0222-8.9576.7159-6.0464 6.2015-10.3687 12.2524-9.6527 1.3986.165 2.4995.358 3.6729.9813" stroke="#00005a" stroke-linecap="round" stroke-linejoin="round" stroke-miterlimit="10" stroke-width="1.5"/><path d="m39.2199 72.2995c-.2713-2.4588.374-5.0074 1.7824-7.0411 1.4085-2.0337 3.5678-3.5363 5.9652-4.1485-.507-1.5055-.9959-3.0675-1.5029-4.573-5.9652 3.4873-11.7227 7.3291-17.2323 11.498 2.7107 3.5095 6.5901 4.8517 10.9876 4.2646z" fill="#00005a"/><path d="m79.3533 76.3465 22.0297 11.1432c4.746 2.3999 6.645 8.1912 4.244 12.9323-2.402 4.743-8.1966 6.642-12.9424 4.241l-22.0306-11.144c-4.7458-2.4004-6.6443-8.1912-4.2416-12.9339 1.6955-3.3479 5.083-5.2789 8.5988-5.2783 1.4622 0 2.9477.3342 4.3421 1.0397z" fill="url(#v)"/><path d="m103.633 102.681c2.403-4.7428.503-10.5327-4.2424-12.9338l-22.0305-11.1435c-3.5235-1.7824-7.6228-1.1906-10.4847 1.172 2.6232-4.1398 8.0137-5.6878 12.4777-3.4296l22.0309 11.1441c4.745 2.4005 6.645 8.1909 4.243 12.9328-.619 1.222-1.465 2.25-2.457 3.069.165-.261.321-.531.463-.811z" fill="#fff"/><path d="m70.6545 93.5194 22.0305 11.1436c4.7452 2.4 10.539.503 12.942-4.24 2.402-4.7422.502-10.5332-4.244-12.9331l-22.0299-11.1441c-4.7452-2.4005-10.5394-.5014-12.9415 4.2401-2.4021 4.7426-.5023 10.533 4.2429 12.9335z" stroke="#00005a" stroke-linecap="round" stroke-linejoin="round" stroke-miterlimit="10" stroke-width="1.5"/><path d="m66.3983 80.9848 6.2808 2.8501c5.8579 2.6582 12.6854 2.0267 17.9563-1.66" stroke="#00005a" stroke-linecap="round" stroke-linejoin="round" stroke-miterlimit="10" stroke-width="1.5"/><path d="m35.3602 47.7309c-.4142 1.0344.0893 2.2093 1.1243 2.6238 1.0357.414 2.2113-.0886 2.6256-1.1241.4148-1.0344-.0887-2.2093-1.1243-2.6238-1.0357-.414-2.2113.0892-2.6256 1.1241z" fill="#fff"/><path d="m15.2481 46.3782c-.4143 1.0344.0893 2.2092 1.1243 2.6238 1.0356.414 2.2113-.0886 2.6255-1.1242.4149-1.0343-.0887-2.2092-1.1243-2.6238-1.0356-.4139-2.2113.0893-2.6255 1.1242z" fill="#fff"/><path d="m69.7494 8.56343c.9826 1.43957 2.5083 2.10837 3.4086 1.49437.9002-.61278.8331-2.27743-.1494-3.71644-.982-1.439-2.5083-2.10836-3.4079-1.49498-.9003.61397-.8338 2.27804.1487 3.71705z" fill="#fff"/><path d="m63.3926 75.638c5.4016-2.8004 10.04-7.0551 13.2927-12.1942-1.9615-.8665-3.9779-2.169-5.9395-3.0355-1.2025 5.278-3.6121 10.3792-7.0335 14.5749" fill="#00005a"/><path d="m70.4614 93.5846c3.1588 3.099 6.0684 6.4524 8.6911 10.0164 1.5508-1.041 3.017-2.244 4.0911-3.7723-4.2901-2.116-8.4921-4.1281-12.7822-6.2441z" fill="#00005a"/></svg>