<svg width="108" height="110" viewBox="0 0 108 110" fill="none" xmlns="http://www.w3.org/2000/svg">
<path d="M79.313 85.2246C79.313 90.4267 83.5331 94.644 88.7392 94.644C93.9448 94.644 98.1649 90.4267 98.1649 85.2246C98.1649 80.0219 93.9448 75.8046 88.7392 75.8046C83.5331 75.8046 79.313 80.0219 79.313 85.2246Z" fill="#FFAAFF"/>
<path d="M88.7396 77.8718C83.8835 77.8718 79.8886 81.5422 79.3729 86.2581C79.3361 85.9181 79.3134 85.5741 79.3134 85.2243C79.3134 80.0222 83.5335 75.8043 88.7396 75.8043C93.9451 75.8043 98.1658 80.0222 98.1658 85.2243C98.1658 85.5741 98.1431 85.9181 98.1063 86.2581C97.5906 81.5422 93.5957 77.8718 88.7396 77.8718Z" fill="white"/>
<path d="M26.6215 6.73018C32.5528 9.28109 36.3406 13.8457 38.4393 17.1354L16.4724 23.2838C17.3866 15.4445 20.5857 10.3002 22.6003 7.7551C23.2643 6.91782 24.2649 6.4563 25.2883 6.4563C25.737 6.4563 26.1903 6.54535 26.6215 6.73018Z" fill="url(#paint0_linear_1_556)"/>
<path d="M33.2619 17.4072C31.5956 13.0989 28.6754 9.28331 24.9507 6.54815C30.0343 8.64136 35.2731 12.5893 38.146 17.2748C36.4114 17.5867 34.9411 17.9418 33.2619 17.4072Z" fill="#00E0FF"/>
<path d="M79.3137 85.2246C79.3137 90.4267 83.5338 94.644 88.7399 94.644C93.9454 94.644 98.1655 90.4267 98.1655 85.2246C98.1655 80.0219 93.9454 75.8046 88.7399 75.8046C83.5338 75.8046 79.3137 80.0219 79.3137 85.2246Z" stroke="#00005A" stroke-width="1.5" stroke-miterlimit="10" stroke-linecap="round" stroke-linejoin="round"/>
<path d="M93.6339 55.6669C95.6077 60.6032 93.2039 66.2024 88.2644 68.1755L65.3353 77.3309C60.3958 79.3022 54.7929 76.8993 52.8191 71.9649C50.8453 67.0286 53.2491 61.4294 58.1886 59.4563L81.1176 50.3009C82.2898 49.8327 83.4987 49.6114 84.6884 49.6114C88.5117 49.6114 92.1286 51.9021 93.6339 55.6669Z" fill="url(#paint1_linear_1_556)"/>
<path d="M92.9695 58.3225C90.9963 53.3863 85.3922 50.9841 80.4533 52.9566L57.5243 62.1119C54.9956 63.1218 53.1373 65.0855 52.1851 67.4207C52.5387 63.9725 54.7441 60.8315 58.1888 59.456L81.1179 50.3001C86.0568 48.3282 91.6602 50.7305 93.634 55.6661C94.5967 58.0747 94.511 60.6391 93.6037 62.8652C93.7572 61.3691 93.5664 59.8158 92.9695 58.3225Z" fill="white"/>
<path d="M65.3352 77.3305L88.2642 68.1746C93.2032 66.2027 95.6076 60.6029 93.6337 55.6667C91.6605 50.731 86.0571 48.3288 81.1176 50.3007L58.1885 59.4566C53.2496 61.4285 50.8458 67.0283 52.819 71.9645C54.7922 76.9002 60.3963 79.3024 65.3352 77.3305Z" stroke="#00005A" stroke-width="1.5" stroke-miterlimit="10" stroke-linecap="round" stroke-linejoin="round"/>
<path d="M53.1101 72.2375L59.4014 69.4108C65.2698 66.7747 69.3078 61.2374 70.0231 54.8476" stroke="#00005A" stroke-width="1.5" stroke-miterlimit="10" stroke-linecap="round" stroke-linejoin="round"/>
<path d="M89.2565 84.2664C89.2565 97.5965 78.4452 108.401 65.1063 108.401C51.7692 108.401 40.9579 97.5965 40.9579 84.2664C40.9579 70.9387 51.7692 60.1341 65.1063 60.1341C78.4452 60.1341 89.2565 70.9387 89.2565 84.2664Z" fill="url(#paint2_linear_1_556)"/>
<path d="M85.7781 85.2803C85.7781 71.952 74.9662 61.1472 61.6291 61.1472C59.9108 61.1472 58.2363 61.3297 56.6196 61.6702C59.2603 60.6796 62.1192 60.1333 65.1064 60.1333C78.4435 60.1333 89.2555 70.938 89.2555 84.2669C89.2555 95.8787 81.0487 105.572 70.1159 107.877C79.265 104.443 85.7781 95.6233 85.7781 85.2803Z" fill="#00E0FF"/>
<path d="M40.9574 84.2665C40.9574 97.5948 51.7694 108.4 65.1065 108.4C78.4436 108.4 89.2555 97.5948 89.2555 84.2665C89.2555 70.9382 78.4436 60.1328 65.1065 60.1328C51.7694 60.1328 40.9574 70.9382 40.9574 84.2665Z" stroke="#00005A" stroke-width="1.5" stroke-miterlimit="10" stroke-linecap="round" stroke-linejoin="round"/>
<path d="M69.1891 39.5165C67.4615 36.5755 65.3774 31.8372 61.2174 27.4578C64.707 30.9066 67.4008 35.0287 69.1891 39.5165Z" fill="url(#paint3_linear_1_556)"/>
<path d="M48.6322 19.4747C45.9425 18.5354 42.8765 17.8162 39.3688 17.3947C42.4687 17.6582 45.5802 18.3447 48.6322 19.4747Z" fill="url(#paint4_linear_1_556)"/>
<path d="M70.7867 60.5646C70.7937 60.5372 70.7995 60.5089 70.8053 60.4803C70.7995 60.5089 70.7937 60.5372 70.7867 60.5646Z" fill="url(#paint5_linear_1_556)"/>
<path d="M69.9622 63.4777C69.961 63.469 69.9622 63.4574 69.961 63.4493C70.0613 63.1467 70.1645 62.8472 70.2567 62.5417C70.1645 62.8542 70.0642 63.1664 69.9622 63.4777Z" fill="url(#paint6_linear_1_556)"/>
<path d="M4.05358 38.3993C6.37805 33.0922 9.86183 28.6321 14.0924 25.1955C8.22759 30.4856 4.90367 36.688 4.05358 38.3993Z" fill="url(#paint7_linear_1_556)"/>
<path d="M27.1963 41.7929L40.2603 32.6148L67.3727 57.1929C67.0897 58.7806 66.7134 60.3527 66.2495 61.8984C60.2178 61.211 54.7591 65.5237 54.0443 71.5549C53.7316 74.2014 54.4078 76.962 55.9516 79.1433C53.4346 81.6761 50.599 83.8902 47.5173 85.6948C51.1452 84.4692 54.6033 82.6261 57.7049 80.3031C58.0882 80.2081 58.5083 79.9203 59.0562 79.5157C59.52 79.1711 59.9698 78.8041 60.4144 78.4338C50.7181 87.4136 36.3535 90.5634 23.2655 85.3281C5.78243 78.3366 -3.02421 58.9461 2.91299 41.3306C2.85348 41.7959 3.00634 42.0277 3.63472 41.6079L18.7887 30.4175L27.1963 41.7929Z" fill="url(#paint8_linear_1_556)"/>
<path d="M1.86727 46.0335C4.6445 47.925 6.46136 51.1552 6.63523 54.5095C6.8091 57.8639 5.33588 61.2643 2.7687 63.4328C0.749959 57.8837 0.592428 51.7989 1.86727 46.0335Z" fill="#FFAAFF"/>
<path d="M47.076 61.5804C44.671 62.0819 42.4831 63.5541 41.1125 65.5919C39.7426 67.6297 39.2052 70.2104 39.6493 72.6249C41.9959 72.0919 44.136 70.7853 45.5269 68.8227C46.9179 66.8601 47.3526 63.9698 47.076 61.5804Z" fill="#FF77AD"/>
<path d="M47.0631 61.3542C44.6278 61.9326 42.4317 63.4597 41.0425 65.5407C39.6533 67.621 39.085 70.2338 39.4853 72.703" stroke="#00005A" stroke-width="1.5" stroke-miterlimit="10" stroke-linecap="round" stroke-linejoin="round"/>
<path d="M70.4076 62.0101C70.4402 61.8888 70.4723 61.7669 70.5055 61.6456C70.4729 61.7669 70.4408 61.8888 70.4076 62.0101ZM70.2776 62.477C70.323 62.3213 70.3656 62.1663 70.4076 62.0101C70.3662 62.1663 70.3236 62.3219 70.2776 62.477Z" fill="url(#paint9_linear_1_556)"/>
<path d="M69.1735 65.6768C69.4652 64.948 69.7219 64.2133 69.9623 63.4775C69.9716 63.555 69.9775 63.6349 69.9722 63.7212C69.8771 65.2786 68.7843 67.2126 68.1104 68.5939C66.6098 71.6701 64.5782 74.4875 62.1341 76.8845C61.5828 77.4244 61.0052 77.9369 60.4136 78.4331C64.1313 74.9895 67.1647 70.6923 69.1735 65.6768Z" fill="#FFAAFF"/>
<path d="M57.7041 80.3033C61.8524 77.1956 65.356 73.2249 67.7435 68.6933C68.6298 67.0106 69.3637 65.2532 69.9612 63.4498C69.9624 63.4579 69.9612 63.469 69.9624 63.4778C69.722 64.2136 69.4653 64.9483 69.1735 65.6771C67.1647 70.6926 64.1313 74.9898 60.4136 78.4334C59.9702 78.8048 59.5209 79.1704 59.0553 79.5144C58.5092 79.9202 58.088 80.2088 57.7041 80.3033Z" fill="#FFAAFF"/>
<path d="M55.9519 79.1436C54.4075 76.9618 53.7307 74.2021 54.0446 71.5544C54.7587 65.5244 60.2175 61.212 66.2486 61.8989C65.5567 64.2032 64.6681 66.448 63.584 68.5954C61.6201 72.4862 59.0249 76.0528 55.9519 79.1436Z" fill="#FFAAFF"/>
<path d="M71.4258 57.9054C71.4258 58.8173 71.2573 59.2912 71.0229 59.5163C71.1996 58.6679 71.3424 57.814 71.4567 56.954C71.4386 57.3102 71.4258 57.6314 71.4258 57.9054Z" fill="url(#paint10_linear_1_556)"/>
<path d="M3.60149 39.45C3.35103 40.0733 3.12448 40.7016 2.91196 41.3307C3.01822 40.487 3.83094 38.859 3.83094 38.859C3.83094 38.859 3.90625 38.6951 4.05338 38.3994C3.90041 38.7487 3.74337 39.0932 3.60149 39.45Z" fill="url(#paint11_linear_1_556)"/>
<path d="M35.6632 17.0636C36.955 17.1342 38.1814 17.2499 39.3687 17.3945C30.1858 16.6126 21.1178 19.4911 14.0924 25.1952C18.9777 20.789 25.6244 17.0192 34.0751 17.0192C34.5973 17.0192 35.1264 17.0339 35.6632 17.0636Z" fill="url(#paint12_linear_1_556)"/>
<path d="M69.2626 39.6451C71.2679 43.0176 71.7417 47.1265 71.7516 50.6955C71.6413 47.9691 71.2213 45.2572 70.4768 42.6299C70.426 42.6894 70.3694 42.7414 70.3128 42.7939C69.9913 41.6826 69.6168 40.5899 69.1891 39.5164C69.213 39.5584 69.2387 39.6037 69.2626 39.6451Z" fill="url(#paint13_linear_1_556)"/>
<path d="M61.2174 27.4579C57.9629 24.2417 54.027 21.607 49.5093 19.8001C49.2176 19.6829 48.9247 19.5816 48.6318 19.4749C54.2744 21.4416 58.2716 24.356 61.2174 27.4579Z" fill="url(#paint14_linear_1_556)"/>
<path d="M39.3688 17.3949C42.8765 17.8164 45.9425 18.5356 48.6322 19.4749C48.9251 19.5816 49.218 19.6828 49.5097 19.8C54.0274 21.6069 57.9634 24.2417 61.2179 27.4579C65.3779 31.8373 67.462 36.5756 69.1896 39.5166C69.6172 40.59 69.9918 41.6828 70.3133 42.7941C69.6779 43.4069 68.8249 43.6584 68.2303 44.3383L67.7945 45.5204C68.2105 49.4048 68.0577 53.3472 67.3727 57.1931L40.2603 32.6149L27.1963 41.7931L18.7887 30.4176L3.63472 41.608C3.00634 42.0278 2.85348 41.796 2.91299 41.3307C3.12537 40.7016 3.35176 40.0733 3.60206 39.45C3.74384 39.0932 3.90078 38.7487 4.05364 38.3995C4.90373 36.6882 8.22765 30.4858 14.0925 25.1956C20.3576 20.109 28.2488 17.2685 36.3961 17.2685C37.3844 17.2685 38.3757 17.3103 39.3688 17.3949Z" fill="url(#paint15_linear_1_556)"/>
<path d="M39.3688 17.3949C42.8765 17.8164 45.9425 18.5356 48.6322 19.4749C48.9251 19.5816 49.218 19.6828 49.5097 19.8C54.0274 21.6069 57.9634 24.2417 61.2179 27.4579C65.3779 31.8373 67.462 36.5756 69.1896 39.5166C69.6172 40.59 69.9918 41.6828 70.3133 42.7941C69.6779 43.4069 68.8249 43.6584 68.2303 44.3383L67.7945 45.5204C68.2105 49.4048 68.0577 53.3472 67.3727 57.1931L40.2603 32.6149L27.1963 41.7931L18.7887 30.4176L3.63472 41.608C3.00634 42.0278 2.85348 41.796 2.91299 41.3307C3.12537 40.7016 3.35176 40.0733 3.60206 39.45C3.74384 39.0932 3.90078 38.7487 4.05364 38.3995C4.90373 36.6882 8.22765 30.4858 14.0925 25.1956C20.3576 20.109 28.2488 17.2685 36.3961 17.2685C37.3844 17.2685 38.3757 17.3103 39.3688 17.3949Z" fill="url(#paint16_linear_1_556)"/>
<path d="M71.0219 59.5156C70.9549 59.8381 70.882 60.1593 70.8056 60.4794C70.8779 60.1663 70.9368 59.852 71.0003 59.5384C71.0079 59.5314 71.0149 59.5226 71.0219 59.5156Z" fill="#00E0FF"/>
<path d="M70.2574 62.5417C70.2638 62.5201 70.2714 62.4985 70.2778 62.477C70.2714 62.4985 70.2638 62.5201 70.2574 62.5417Z" fill="#00E0FF"/>
<path d="M71.6989 53.0611C71.7328 52.3118 71.7549 51.5183 71.7526 50.695C71.8377 52.7841 71.7351 54.8802 71.457 56.9536C71.4663 56.788 71.4762 56.6154 71.4879 56.4335C71.6132 55.3076 71.6832 54.1823 71.6989 53.0611Z" fill="#00E0FF"/>
<path d="M70.5061 61.6444C70.6023 61.2847 70.7026 60.9255 70.7865 60.564C70.7003 60.9267 70.604 61.2852 70.5061 61.6444Z" fill="#00E0FF"/>
<path d="M66.2972 61.9022C66.2809 61.9004 66.2651 61.901 66.2488 61.8987C66.7138 60.3536 67.089 58.781 67.3725 57.1922L69.4595 59.0842C69.4595 59.0842 70.4234 60.0434 71.0004 59.5384C70.9368 59.8521 70.8785 60.1664 70.8056 60.4801C70.7991 60.5081 70.7933 60.5366 70.7869 60.5646C70.7023 60.9255 70.6019 61.2847 70.5057 61.6451C70.4298 61.922 70.3598 62.2019 70.2775 62.4771C70.2711 62.4987 70.2635 62.5208 70.2565 62.5424C70.1649 62.8467 70.0611 63.1476 69.9613 63.4496C69.7693 62.1033 67.4507 62.0386 66.2972 61.9022Z" fill="white"/>
<path d="M71.4886 56.4338C71.5498 55.491 71.6413 54.3406 71.6996 53.0613C71.6839 54.1826 71.6134 55.3073 71.4886 56.4338Z" fill="#00E0FF"/>
<path d="M57.7036 80.303C54.6037 82.6253 51.145 84.469 47.5159 85.694C50.5977 83.8894 53.4344 81.6755 55.952 79.1433C56.0115 79.2278 56.0635 79.3182 56.1265 79.4004C56.7298 80.1998 57.1825 80.4313 57.7036 80.303Z" fill="white"/>
<path d="M69.9614 63.449C69.3639 65.2524 68.6299 67.0097 67.7437 68.6925C65.3562 73.2246 61.852 77.1947 57.7042 80.3025C57.1832 80.4307 56.7305 80.1999 56.1266 79.3999C56.0642 79.3177 56.0122 79.2279 55.9521 79.1428C59.0252 76.0519 61.6204 72.4853 63.5843 68.5945C64.6683 66.4471 65.5569 64.2023 66.2495 61.898C66.2658 61.9003 66.281 61.8998 66.2973 61.9015C67.4508 62.038 69.7694 62.1021 69.9614 63.449Z" fill="white"/>
<path d="M70.3136 42.7945C70.369 42.7408 70.4262 42.6895 70.4781 42.63C71.2214 45.2568 71.6409 47.9692 71.7524 50.6956C71.7547 51.5183 71.7331 52.3118 71.6993 53.0611C71.7477 49.5604 71.2698 46.1034 70.3136 42.7945Z" fill="#00E0FF"/>
<path d="M71.4879 56.4338C71.4763 56.6157 71.4658 56.7877 71.457 56.9539C71.3416 57.8127 71.1993 58.6669 71.0227 59.5153C71.0151 59.5223 71.0087 59.531 71.0011 59.538C71.211 58.5042 71.3731 57.4687 71.4879 56.4338Z" fill="#00E0FF"/>
<path d="M67.7946 45.5197L68.2311 44.3384C68.8244 43.6574 69.678 43.4055 70.3134 42.7945C71.2703 46.1034 71.7475 49.5604 71.6991 53.0617C71.6408 54.3409 71.5492 55.4913 71.4879 56.4341C71.373 57.4691 71.2108 58.5046 71.0007 59.5384C70.4237 60.0427 69.4598 59.0841 69.4598 59.0841L67.3728 57.1921C68.0584 53.3462 68.2101 49.4047 67.7946 45.5197Z" fill="#00E0FF"/>
<path d="M72.773 24.7418C74.2147 25.2765 75.1161 26.7256 74.9755 28.2568C74.6307 31.993 73.0303 39.3401 66.1917 46.7013L52.8295 25.5179C52.8295 25.5179 57.6966 23.2415 64.1525 23.2415C66.8305 23.2415 69.7817 23.6334 72.773 24.7418Z" fill="url(#paint17_linear_1_556)"/>
<path d="M65.6227 46.7052C69.6054 40.014 71.3925 32.0423 70.6474 24.2934C71.9363 23.8112 73.4591 24.9417 74.0122 26.2006C74.5653 27.46 74.4194 28.9077 74.1715 30.2605C73.0547 36.3541 70.0202 42.3392 65.6227 46.7052Z" fill="#00E0FF"/>
<path d="M52.8293 25.5189C52.8293 25.5189 62.5717 20.9611 72.7722 24.7423C74.2145 25.2769 75.1165 26.7258 74.9753 28.2564C74.6299 31.9933 73.0307 39.3399 66.192 46.7011" stroke="#00005A" stroke-width="1.5" stroke-miterlimit="10" stroke-linecap="round" stroke-linejoin="round"/>
<path d="M38.4391 17.1363C36.3404 13.846 32.5538 9.28061 26.6218 6.73087C25.2087 6.1239 23.5552 6.55128 22.6013 7.7559C20.586 10.3004 17.387 15.4454 16.4727 23.2835" stroke="#00005A" stroke-width="1.5" stroke-miterlimit="10" stroke-linecap="round" stroke-linejoin="round"/>
<path d="M56.9697 23.8757C54.7047 22.256 52.2111 20.8794 49.5097 19.7995C31.4023 12.5567 10.8485 21.3546 3.60142 39.45C-3.64562 57.5449 5.15807 78.0857 23.2649 85.3285C41.3723 92.5702 61.9261 83.7729 69.1737 65.6769C72.3279 57.802 72.4416 49.463 70.0711 41.9589" stroke="#00005A" stroke-width="1.5" stroke-miterlimit="10" stroke-linecap="round" stroke-linejoin="round"/>
<path d="M74.0071 13.9061C71.2194 17.0826 66.3826 17.3998 63.204 14.6139C60.0253 11.8286 59.7079 6.9944 62.4957 3.81786C65.2834 0.641319 70.1202 0.324131 73.2988 3.10944C76.4775 5.8959 76.7949 10.7295 74.0071 13.9061Z" fill="#FF77AD"/>
<path d="M74.0071 13.9061C71.2194 17.0826 66.3826 17.3998 63.204 14.6139C60.0253 11.8286 59.7079 6.9944 62.4957 3.81786C65.2834 0.641319 70.1202 0.324131 73.2988 3.10943C76.4775 5.8959 76.7949 10.7295 74.0071 13.9061Z" stroke="#00005A" stroke-width="1.5" stroke-miterlimit="10" stroke-linecap="round" stroke-linejoin="round"/>
<path d="M51.9791 20.4633C53.3227 16.3626 57.1321 13.1791 61.4088 12.5815" stroke="#00005A" stroke-width="1.5" stroke-miterlimit="10" stroke-linecap="round" stroke-linejoin="round"/>
<path d="M70.528 59.6308L40.2609 32.615L27.1962 41.7925L18.7887 30.4174L2.73797 42.4181" stroke="#00005A" stroke-width="1.5" stroke-miterlimit="10" stroke-linecap="round" stroke-linejoin="round"/>
<path d="M10.2203 48.0327C9.8679 51.295 11.1433 54.1082 13.0699 54.3158C14.9959 54.524 16.8436 52.0477 17.196 48.7854C17.5484 45.5226 16.2724 42.7093 14.3465 42.5017C12.4199 42.2936 10.5727 44.7699 10.2203 48.0327Z" fill="#00005A"/>
<path d="M30.6617 50.0967C30.3093 53.3595 31.5853 56.1722 33.5113 56.3798C35.4373 56.5879 37.285 54.1122 37.6375 50.8494C37.9899 47.5866 36.7138 44.7733 34.7879 44.5657C32.8619 44.3576 31.0141 46.8338 30.6617 50.0967Z" fill="#00005A"/>
<path d="M45.3646 56.1832C49.4435 62.7794 46.7433 68.9931 43.0396 71.4449C39.3364 73.8961 32.1961 74.0267 28.0711 67.6311L45.3646 56.1832Z" stroke="#00005A" stroke-width="1.5" stroke-miterlimit="10" stroke-linecap="round" stroke-linejoin="round"/>
<path d="M2.72172 63.357C4.00823 62.2433 5.05552 60.8142 5.73116 59.1257C7.65655 54.3189 5.95637 48.9605 1.92647 46.072" stroke="#00005A" stroke-width="1.5" stroke-miterlimit="10" stroke-linecap="round" stroke-linejoin="round"/>
<path d="M57.0673 80.5126C54.8473 78.2142 53.6396 74.9746 54.0451 71.555C54.761 65.5086 60.2466 61.1863 66.2975 61.9023C67.6961 62.0673 68.797 62.2603 69.9704 62.8836" stroke="#00005A" stroke-width="1.5" stroke-miterlimit="10" stroke-linecap="round" stroke-linejoin="round"/>
<path d="M39.2199 72.2995C38.9486 69.8407 39.5939 67.2921 41.0023 65.2584C42.4108 63.2247 44.5701 61.7221 46.9675 61.1099C46.4605 59.6044 45.9716 58.0424 45.4646 56.5369C39.4994 60.0242 33.7419 63.866 28.2323 68.0349C30.943 71.5444 34.8224 72.8866 39.2199 72.2995Z" fill="#00005A"/>
<path d="M79.3533 76.3465L101.383 87.4897C106.129 89.8896 108.028 95.6809 105.627 100.422C103.225 105.165 97.4304 107.064 92.6846 104.663L70.654 93.519C65.9082 91.1186 64.0097 85.3278 66.4124 80.5851C68.1079 77.2372 71.4954 75.3062 75.0112 75.3068C76.4734 75.3068 77.9589 75.641 79.3533 76.3465Z" fill="url(#paint18_linear_1_556)"/>
<path d="M103.633 102.681C106.036 97.9382 104.136 92.1483 99.3906 89.7472L77.3601 78.6037C73.8366 76.8213 69.7373 77.4131 66.8754 79.7757C69.4986 75.6359 74.8891 74.0879 79.3531 76.3461L101.384 87.4902C106.129 89.8907 108.029 95.6811 105.627 100.423C105.008 101.645 104.162 102.673 103.17 103.492C103.335 103.231 103.491 102.961 103.633 102.681Z" fill="white"/>
<path d="M70.6545 93.5194L92.685 104.663C97.4302 107.063 103.224 105.166 105.627 100.423C108.029 95.6808 106.129 89.8898 101.383 87.4899L79.3531 76.3458C74.6079 73.9453 68.8137 75.8444 66.4116 80.5859C64.0095 85.3285 65.9093 91.1189 70.6545 93.5194Z" stroke="#00005A" stroke-width="1.5" stroke-miterlimit="10" stroke-linecap="round" stroke-linejoin="round"/>
<path d="M66.3983 80.9848L72.6791 83.8349C78.537 86.4931 85.3645 85.8616 90.6354 82.1749" stroke="#00005A" stroke-width="1.5" stroke-miterlimit="10" stroke-linecap="round" stroke-linejoin="round"/>
<path d="M35.3602 47.7309C34.946 48.7653 35.4495 49.9402 36.4845 50.3547C37.5202 50.7687 38.6958 50.2661 39.1101 49.2306C39.5249 48.1962 39.0214 47.0213 37.9858 46.6068C36.9501 46.1928 35.7745 46.696 35.3602 47.7309Z" fill="white"/>
<path d="M15.2481 46.3782C14.8338 47.4126 15.3374 48.5874 16.3724 49.002C17.408 49.416 18.5837 48.9134 18.9979 47.8778C19.4128 46.8435 18.9092 45.6686 17.8736 45.254C16.838 44.8401 15.6623 45.3433 15.2481 46.3782Z" fill="white"/>
<path d="M69.7494 8.56343C70.732 10.003 72.2577 10.6718 73.158 10.0578C74.0582 9.44502 73.9911 7.78037 73.0086 6.34136C72.0266 4.90236 70.5003 4.233 69.6007 4.84638C68.7004 5.46035 68.7669 7.12442 69.7494 8.56343Z" fill="white"/>
<path d="M63.3926 75.638C68.7942 72.8376 73.4326 68.5829 76.6853 63.4438C74.7238 62.5773 72.7074 61.2748 70.7458 60.4083C69.5433 65.6863 67.1337 70.7875 63.7123 74.9832" fill="#00005A"/>
<path d="M70.4614 93.5846C73.6202 96.6836 76.5298 100.037 79.1525 103.601C80.7033 102.56 82.1695 101.357 83.2436 99.8287C78.9535 97.7127 74.7515 95.7006 70.4614 93.5846Z" fill="#00005A"/>
<defs>
<linearGradient id="paint0_linear_1_556" x1="38.4386" y1="14.8691" x2="16.4721" y2="14.8691" gradientUnits="userSpaceOnUse">
<stop stop-color="#A470FF"/>
<stop offset="0.799087" stop-color="#A470FF"/>
<stop offset="1" stop-color="#5F2ABF"/>
</linearGradient>
<linearGradient id="paint1_linear_1_556" x1="94.324" y1="63.8152" x2="52.129" y2="63.8152" gradientUnits="userSpaceOnUse">
<stop stop-color="#FF91FF"/>
<stop offset="0.139816" stop-color="#FFE6F6"/>
<stop offset="0.34813" stop-color="#FFE6F6"/>
<stop offset="0.786337" stop-color="white"/>
<stop offset="1" stop-color="white"/>
</linearGradient>
<linearGradient id="paint2_linear_1_556" x1="89.2563" y1="84.2672" x2="40.9581" y2="84.2672" gradientUnits="userSpaceOnUse">
<stop stop-color="#A470FF"/>
<stop offset="0.799087" stop-color="#A470FF"/>
<stop offset="1" stop-color="#5F2ABF"/>
</linearGradient>
<linearGradient id="paint3_linear_1_556" x1="58.9276" y1="93.2515" x2="64.7776" y2="37.4663" gradientUnits="userSpaceOnUse">
<stop stop-color="white"/>
<stop offset="0.516096" stop-color="#FFE6F6"/>
<stop offset="0.805655" stop-color="#FFE6F6"/>
<stop offset="1" stop-color="#FF91FF"/>
</linearGradient>
<linearGradient id="paint4_linear_1_556" x1="36.3919" y1="90.8764" x2="42.2401" y2="35.0997" gradientUnits="userSpaceOnUse">
<stop stop-color="white"/>
<stop offset="0.516096" stop-color="#FFE6F6"/>
<stop offset="0.805655" stop-color="#FFE6F6"/>
<stop offset="1" stop-color="#FF91FF"/>
</linearGradient>
<linearGradient id="paint5_linear_1_556" x1="67.2715" y1="94.0185" x2="73.0912" y2="38.4103" gradientUnits="userSpaceOnUse">
<stop stop-color="white"/>
<stop offset="0.516096" stop-color="#FFE6F6"/>
<stop offset="0.805655" stop-color="#FFE6F6"/>
<stop offset="1" stop-color="#FF91FF"/>
</linearGradient>
<linearGradient id="paint6_linear_1_556" x1="66.8469" y1="94.072" x2="72.6968" y2="38.3047" gradientUnits="userSpaceOnUse">
<stop stop-color="white"/>
<stop offset="0.516096" stop-color="#FFE6F6"/>
<stop offset="0.805655" stop-color="#FFE6F6"/>
<stop offset="1" stop-color="#FF91FF"/>
</linearGradient>
<linearGradient id="paint7_linear_1_556" x1="3.23271" y1="87.4104" x2="9.08269" y2="31.6254" gradientUnits="userSpaceOnUse">
<stop stop-color="white"/>
<stop offset="0.516096" stop-color="#FFE6F6"/>
<stop offset="0.805655" stop-color="#FFE6F6"/>
<stop offset="1" stop-color="#FF91FF"/>
</linearGradient>
<linearGradient id="paint8_linear_1_556" x1="30.4077" y1="90.2614" x2="36.2579" y2="34.4755" gradientUnits="userSpaceOnUse">
<stop stop-color="white"/>
<stop offset="0.516096" stop-color="#FFE6F6"/>
<stop offset="0.805655" stop-color="#FFE6F6"/>
<stop offset="1" stop-color="#FF91FF"/>
</linearGradient>
<linearGradient id="paint9_linear_1_556" x1="67.0293" y1="94.0965" x2="72.8816" y2="38.3196" gradientUnits="userSpaceOnUse">
<stop stop-color="white"/>
<stop offset="0.516096" stop-color="#FFE6F6"/>
<stop offset="0.805655" stop-color="#FFE6F6"/>
<stop offset="1" stop-color="#FF91FF"/>
</linearGradient>
<linearGradient id="paint10_linear_1_556" x1="71.7535" y1="58.2345" x2="2.94693" y2="58.2345" gradientUnits="userSpaceOnUse">
<stop stop-color="#A470FF"/>
<stop offset="0.799087" stop-color="#A470FF"/>
<stop offset="1" stop-color="#5F2ABF"/>
</linearGradient>
<linearGradient id="paint11_linear_1_556" x1="71.7983" y1="39.8646" x2="2.89621" y2="39.8646" gradientUnits="userSpaceOnUse">
<stop stop-color="#A470FF"/>
<stop offset="0.799087" stop-color="#A470FF"/>
<stop offset="1" stop-color="#5F2ABF"/>
</linearGradient>
<linearGradient id="paint12_linear_1_556" x1="71.7532" y1="21.107" x2="2.89718" y2="21.107" gradientUnits="userSpaceOnUse">
<stop stop-color="#A470FF"/>
<stop offset="0.799087" stop-color="#A470FF"/>
<stop offset="1" stop-color="#5F2ABF"/>
</linearGradient>
<linearGradient id="paint13_linear_1_556" x1="71.752" y1="45.1055" x2="2.89651" y2="45.1055" gradientUnits="userSpaceOnUse">
<stop stop-color="#A470FF"/>
<stop offset="0.799087" stop-color="#A470FF"/>
<stop offset="1" stop-color="#5F2ABF"/>
</linearGradient>
<linearGradient id="paint14_linear_1_556" x1="71.7528" y1="23.4659" x2="2.89689" y2="23.4659" gradientUnits="userSpaceOnUse">
<stop stop-color="#A470FF"/>
<stop offset="0.799087" stop-color="#A470FF"/>
<stop offset="1" stop-color="#5F2ABF"/>
</linearGradient>
<linearGradient id="paint15_linear_1_556" x1="31.5394" y1="90.3805" x2="37.3897" y2="34.5939" gradientUnits="userSpaceOnUse">
<stop stop-color="white"/>
<stop offset="0.516096" stop-color="#FFE6F6"/>
<stop offset="0.805655" stop-color="#FFE6F6"/>
<stop offset="1" stop-color="#FF91FF"/>
</linearGradient>
<linearGradient id="paint16_linear_1_556" x1="71.7533" y1="37.2299" x2="2.89724" y2="37.2299" gradientUnits="userSpaceOnUse">
<stop stop-color="#A470FF"/>
<stop offset="0.799087" stop-color="#A470FF"/>
<stop offset="1" stop-color="#5F2ABF"/>
</linearGradient>
<linearGradient id="paint17_linear_1_556" x1="74.9897" y1="34.9711" x2="52.8293" y2="34.9711" gradientUnits="userSpaceOnUse">
<stop stop-color="#5F2ABF"/>
<stop offset="0.200913" stop-color="#A470FF"/>
<stop offset="1" stop-color="#A470FF"/>
</linearGradient>
<linearGradient id="paint18_linear_1_556" x1="106.667" y1="90.504" x2="65.3714" y2="90.504" gradientUnits="userSpaceOnUse">
<stop stop-color="#FF91FF"/>
<stop offset="0.139816" stop-color="#FFE6F6"/>
<stop offset="0.34813" stop-color="#FFE6F6"/>
<stop offset="0.786337" stop-color="white"/>
<stop offset="1" stop-color="white"/>
</linearGradient>
</defs>
</svg>
