<svg fill="none" height="95" viewBox="0 0 102 95" width="102" xmlns="http://www.w3.org/2000/svg" xmlns:xlink="http://www.w3.org/1999/xlink"><linearGradient id="a"><stop offset="0" stop-color="#a470ff"/><stop offset=".437361" stop-color="#a470ff"/><stop offset="1" stop-color="#5f2abf"/></linearGradient><linearGradient id="b" gradientUnits="userSpaceOnUse" x1="81.6063" x2="101.097" xlink:href="#a" y1="24.7969" y2="24.7969"/><linearGradient id="c" gradientUnits="userSpaceOnUse" x1="27.1175" x2="97.9826" y1="57.8594" y2="57.8594"><stop offset="0" stop-color="#c44094"/><stop offset=".488831" stop-color="#f7b"/><stop offset=".632615" stop-color="#f7b"/><stop offset="1" stop-color="#ff0"/></linearGradient><linearGradient id="d" gradientUnits="userSpaceOnUse" x1=".902415" x2="36.5224" xlink:href="#a" y1="56.8697" y2="56.8697"/><mask id="e" fill="#fff"><path d="m48.2421 25.4543c-17.8978 7.9017-26.0001 28.8166-18.0975 46.713 7.9026 17.8974 28.816 26.0002 46.7138 18.0971 17.8965-7.9021 25.9986-28.8161 18.0977-46.7135-5.8485-13.2444-18.8208-21.125-32.4246-21.1241-4.7788 0-9.6373.9735-14.2894 3.0275z" fill="#fff"/></mask><mask id="f" fill="#fff"><path d="m3.5844 38.2633c-3.113279 2.5303-3.5847556 7.1056-1.054 10.218l21.0912 25.941c2.5317 3.1133 7.1066 3.5847 10.2194 1.0544 3.1123-2.5317 3.5837-7.106 1.0534-10.2193l-21.0917-25.9411c-1.4358-1.7656-3.5294-2.6809-5.64021-2.6809-1.61074 0-3.23144.5325-4.57809 1.6279z" fill="#fff"/></mask><path d="m87.9044 1.82382-.0001.00001c-3.5578.53391-6.0085 3.85019-5.4746 7.40811l-.7417.1113.7417-.11128 4.9605 33.06324v.0001c.5339 3.5577 3.8511 6.0086 7.4081 5.4755 3.5577-.5335 6.0097-3.8511 5.4757-7.409l-4.9607-33.06328c-.4846-3.2288-3.2635-5.54786-6.4335-5.54786-.3213 0-.6472.02388-.9754.07316zm13.1106 38.42668-4.96-33.06331z" fill="url(#b)" stroke="#00005a" stroke-width="1.5"/><path d="m89.4531 42.2304-4.9609-33.06333c-.5558-3.70294 1.7895-7.16944 5.3304-8.09994-.6588-.08676-1.3395-.089621-2.0293.01382-3.9675.59539-6.7009 4.29404-6.1055 8.26107l4.961 33.06378c.5949 3.9671 4.294 6.7009 8.261 6.1055.2646-.0395.5225-.0953.7756-.1616-3.1295-.4123-5.7408-2.842-6.2323-6.1193z" fill="#bef214"/><path d="m94.9098 48.5118c-3.9675.5954-7.6661-2.1384-8.261-6.1059l-4.961-33.06291c-.5954-3.96751 2.138-7.66616 6.1055-8.26155s7.6661 2.13844 8.2611 6.10547l4.9606 33.06339c.596 3.9675-2.1377 7.6661-6.1052 8.2615z" stroke="#00005a" stroke-linecap="round" stroke-linejoin="round" stroke-miterlimit="10" stroke-width="1.5"/><path d="m85.1369 30.5667c2.6356 3.4841 11.3848 9.6287 15.7071 10.2598.079 2.9026-1.4735 5.7656-4.1068 6.9893-12.4626 3.4345-12.3363-17.3955-11.6003-17.2491z" fill="#00005a"/><path d="m48.2421 25.4543c-17.8978 7.9017-26.0001 28.8166-18.0975 46.713 7.9026 17.8974 28.816 26.0002 46.7138 18.0971 17.8965-7.9021 25.9986-28.8161 18.0977-46.7135-5.8485-13.2444-18.8208-21.125-32.4246-21.1241-4.7788 0-9.6373.9735-14.2894 3.0275z" fill="url(#c)"/><path d="m30.1446 72.1673 1.3721-.6059zm46.7138 18.0971-.6059-1.3722h.0001zm18.0977-46.7135 1.3722-.6059v.0001zm-32.4246-21.1241.0001 1.5h-.0001zm-13.6835 4.3997c-17.14 7.5671-24.8992 27.5963-17.3313 44.7349l-2.7443 1.2119c-8.2373-18.6544.2082-40.455 18.8639-48.6912zm-17.3313 44.7349c7.568 17.1397 27.5959 24.8992 44.7358 17.3308l1.2119 2.7444c-18.6558 8.2377-40.4548-.2082-48.692-18.8634zm44.7359 17.3308c17.1386-7.5675 24.8974-27.5959 17.3313-44.7355l2.7444-1.2116c8.2357 18.6552-.2097 40.4547-18.864 48.6915zm17.3313-44.7353c-5.6-12.6817-18.0212-20.231-31.0523-20.2301l-.0002-3c14.1766-.001 27.6998 8.211 33.7969 22.0182zm-31.0524-20.2301c-4.5741 0-9.2259.9315-13.6835 2.8997l-1.2117-2.7444c4.8464-2.1399 9.9116-3.1553 14.8952-3.1553z" fill="#00005a" mask="url(#e)"/><path d="m34.4453 70.8773c-7.9021-17.897.2002-38.8114 18.0971-46.714.6712-.296 1.3481-.5625 2.0269-.8141-2.1332.4952-4.2511 1.1879-6.3281 2.1046-17.8969 7.9025-25.9992 28.8169-18.0971 46.7139 7.6061 17.2257 27.2649 25.3705 44.6865 18.9118-16.248 3.7758-33.4003-4.3818-40.3853-20.2022z" fill="#fff300"/><g stroke="#00005a" stroke-width="1.5"><path d="m68.4356 76.916c11.1503 0 20.1892-9.0389 20.1892-20.1892 0-11.1499-9.0389-20.1887-20.1892-20.1887-11.1499 0-20.1887 9.0388-20.1887 20.1887 0 11.1503 9.0388 20.1892 20.1887 20.1892z" fill="#fff"/><path d="m94.9551 43.5509c7.9019 17.897-.2002 38.8113-18.0971 46.7139-17.8969 7.9022-38.8113-.2002-46.7139-18.0971-7.9021-17.8974.2002-38.8118 18.0971-46.7139 17.8974-7.9021 38.8118.2002 46.7139 18.0971z" stroke-linecap="round" stroke-linejoin="round" stroke-miterlimit="10"/><path d="m89.118 58.2564c2.944 1.023 5.7517 2.4311 8.3411 4.193" stroke-linecap="round" stroke-linejoin="round" stroke-miterlimit="10"/><path d="m42.4608 86.4892c1.0329-6.8734 4.0742-13.356 8.7792-18.5557" stroke-linecap="round" stroke-linejoin="round" stroke-miterlimit="10"/><path d="m90.9288 66.8487-.0002-.0005c-.3209-.7262.0081-1.5761.7352-1.897l.0003-.0001c.7268-.3211 1.5767.0082 1.8976.7351.3209.727-.0081 1.5766-.735 1.8979zm0 0c.3208.7271 1.1705 1.0563 1.8976.7355z" fill="#00005a"/></g><path d="m3.5844 38.2633c-3.113279 2.5303-3.5847556 7.1056-1.054 10.218l21.0912 25.941c2.5317 3.1133 7.1066 3.5847 10.2194 1.0544 3.1123-2.5317 3.5837-7.106 1.0534-10.2193l-21.0917-25.9411c-1.4358-1.7656-3.5294-2.6809-5.64021-2.6809-1.61074 0-3.23144.5325-4.57809 1.6279z" fill="url(#d)"/><path d="m2.5304 48.4813 1.16381-.9464.00005.0001zm21.0912 25.941-1.1637.9464-.0001-.0001zm10.2194 1.0544.9465 1.1637-.0004.0003zm1.0534-10.2193 1.1639-.9463.0002.0003zm-21.0917-25.9411 1.1638-.9463.0001.0001zm-9.27225.1111c-2.47015 2.0076-2.84437 5.6379-.83624 8.1075l-2.32761 1.8927c-3.05339-3.7551-2.48466-9.2753 1.27174-12.3283zm-.83619 8.1076 21.09124 25.9411-2.3277 1.8925-21.09126-25.9411zm21.09114 25.941c2.0091 2.4706 5.6394 2.8446 8.1094.8368l1.8923 2.3279c-3.7556 3.0528-9.275 2.4839-12.3292-1.272zm8.109.8371c2.4698-2.0091 2.8439-5.639.836-8.1096l2.3281-1.8921c3.0526 3.7559 2.4838 9.2746-1.271 12.329zm.8362-8.1094-21.0917-25.9411 2.3277-1.8925 21.0917 25.941zm-21.0917-25.941c-1.1388-1.4004-2.79746-2.1273-4.47641-2.1273v-3c2.54261 0 5.07121 1.1037 6.80401 3.2346zm-4.47641-2.1273c-1.27898 0-2.5623.4218-3.63154 1.2916l-1.89311-2.3273c1.62407-1.3211 3.58214-1.9643 5.52465-1.9643z" fill="#00005a" mask="url(#f)"/><path d="m26.3217 72.6228-21.09174-25.9411c-2.32959-2.8649-2.10936-6.9649.36705-9.5729-.71027.2684-1.39146.6488-2.01307 1.1541-3.112798 2.5307-3.58424547 7.106-1.05349 10.2183l21.09175 25.9411c2.5307 3.1128 7.1055 3.5843 10.2183 1.0535.2479-.2011.4724-.4195.6865-.6449-2.8464 1.0773-6.1799.2831-8.2053-2.2081z" fill="#bef214"/><path d="m33.8407 75.4763c3.1128-2.5307 3.5843-7.1055 1.0535-10.2183l-21.0917-25.9411c-2.5308-3.1128-7.10605-3.5848-10.21838-1.0535-3.112794 2.5307-3.58424232 7.1055-1.05348 10.2183l21.09166 25.9411c2.5308 3.1128 7.1056 3.5843 10.2184 1.0535z" stroke="#00005a" stroke-linecap="round" stroke-linejoin="round" stroke-miterlimit="10" stroke-width="1.5"/><path d="m33.5856 76.7114c.3798.6843.8112 1.3704 1.2735 2.0256.0637-1.1332.1671-2.2642.3098-3.3901-.5086.5075-1.0539.9653-1.5833 1.3645z" fill="#00005a" stroke="#00005a" stroke-width="1.5"/><path d="m87.3298 48.3455c4.601 10.4205-.1163 22.598-10.5368 27.1991-10.421 4.601-22.5981-.1168-27.1996-10.5368-4.601-10.421.1168-22.5981 10.5373-27.1991 10.4205-4.6011 22.5981.1163 27.1991 10.5368z" stroke="#00005a" stroke-linecap="round" stroke-linejoin="round" stroke-miterlimit="10" stroke-width="1.5"/><path d="m66.0097 57.7595c1.5532 3.5181.6349 7.5003-2.0009 10.0054 2.885 1.1588 6.2134 1.1993 9.2805-.155 6.0384-2.6662 8.7722-9.7222 6.1061-15.7605-2.6662-6.0383-9.7227-8.7722-15.761-6.106-3.0673 1.3543-5.28 3.8412-6.3668 6.7545 3.6268-.2604 7.1887 1.7437 8.742 5.2615z" fill="#00005a" stroke="#00005a" stroke-width="1.5"/></svg>