<svg fill="none" height="24" viewBox="0 0 24 24" width="24" xmlns="http://www.w3.org/2000/svg"><g stroke="#fff"><path d="m9.875 13.5c0 .4832-.39175.875-.875.875s-.875-.3918-.875-.875.39175-.875.875-.875.875.3918.875.875z" fill="#fff" stroke-width=".125"/><path d="m15.875 13.5c0 .4832-.3918.875-.875.875s-.875-.3918-.875-.875.3918-.875.875-.875.875.3918.875.875z" fill="#fff" stroke-width=".125"/><g stroke-linecap="round" stroke-linejoin="round" stroke-width="1.5"><path d="m6.97501 7.49999c1.62586-.50956 3.32119-.7626 5.02499-.75 1.7038-.0126 3.3991.24044 5.025.75"/><path d="m17.025 16.5c-1.6259.5096-3.3212.7626-5.025.75-1.7038.0126-3.39913-.2404-5.02499-.75"/><path d="m14.5312 17.0719 1.1344 2.25c.073.1534.1972.2766.3511.3485.154.0718.3282.0878.4927.0452 2.2968-.5625 4.2843-1.5375 5.7281-2.7937.1088-.0961.1879-.2213.2278-.3608.0398-.1396.0389-.2877-.0028-.4267l-3.1781-10.61253c-.031-.1086-.0869-.20844-.1635-.29148-.0765-.08304-.1714-.14696-.2772-.18664-.8979-.36837-1.8264-.65699-2.775-.8625-.1822-.03992-.3728-.01133-.5354.08032-.1625.09164-.2856.23993-.3458.41655l-.7406 2.24063"/><path d="m9.46876 17.0719-1.13438 2.25c-.07299.1534-.19713.2766-.3511.3485-.15398.0718-.32817.0878-.49265.0452-2.29687-.5625-4.28437-1.5375-5.72812-2.7937-.10885-.0961-.18789-.2213-.22777-.3608-.03988-.1396-.03892-.2877.00277-.4267l3.17812-10.61253c.03093-.1086.08691-.20844.16344-.29148.07652-.08304.17146-.14696.27719-.18664.8979-.36837 1.82648-.65699 2.775-.8625.18228-.03992.37287-.01133.53541.08032.16255.09164.28565.23993.34584.41655l.74062 2.24063"/></g></g></svg>