<svg fill="none" height="24" viewBox="0 0 25 24" width="25" xmlns="http://www.w3.org/2000/svg" xmlns:xlink="http://www.w3.org/1999/xlink"><clipPath id="a"><path d="m2.5 2h20v20h-20z"/></clipPath><g clip-path="url(#a)"><path d="m19.4566 5.28705c2.2588 3.321 3.3743 7.06695 2.9573 11.37945-.0018.0183-.0113.035-.0263.046-1.7105 1.256-3.3677 2.0183-5.0017 2.5238-.0127.0038-.0263.0036-.0389-.0006-.0126-.0043-.0236-.0124-.0314-.0232-.3774-.5252-.7204-1.079-1.0209-1.6605-.0173-.0342-.0015-.0755.034-.089.5447-.2052 1.0627-.4512 1.5609-.7425.0393-.023.0418-.0792.0055-.1062-.1057-.0785-.2105-.161-.3107-.2435-.0188-.0153-.044-.0183-.0653-.008-3.2347 1.4937-6.7782 1.4937-10.05118 0-.02125-.0095-.0465-.0063-.06475.0087-.1.0825-.205.1643-.30975.2428-.03625.027-.03325.0832.00625.1062.49825.2858 1.01625.5373 1.56024.7435.03526.0135.05201.0538.03451.088-.294.5823-.637 1.136-1.0215 1.6613-.01675.0212-.04425.031-.07025.023-1.62625-.5055-3.2835-1.2678-4.99399-2.5238-.01425-.011-.0245-.0285-.026-.0467-.3485-3.7303.36174-7.50725 2.95449-11.3795.00625-.01025.01575-.01825.02675-.023 1.27575-.5855 2.6425-1.01625 4.07099-1.26225.026-.004.052.008.0655.031.1765.3125.37829.71325.51479 1.04075 1.5057-.23 3.035-.23 4.5722 0 .1365-.3205.3313-.72825.507-1.04075.0063-.01141.016-.02055.0277-.02611.0118-.00557.025-.00728.0378-.00489 1.4293.24675 2.796.6775 4.0707 1.26225.0113.00475.0205.01275.026.02375zm-8.4759 7.09245c.0157-1.1027-.7883-2.0152-1.79754-2.0152-1.00099 0-1.79724.9045-1.79724 2.0152 0 1.1105.812 2.015 1.79724 2.015 1.00124 0 1.79754-.9045 1.79754-2.015zm6.6454 0c.0158-1.1027-.7882-2.0152-1.7972-2.0152-1.0012 0-1.7975.9045-1.7975 2.0152 0 1.1105.812 2.015 1.7975 2.015 1.009 0 1.7972-.9045 1.7972-2.015z" fill="#00005a"/></g></svg>