<svg fill="none" height="24" viewBox="0 0 25 24" width="25" xmlns="http://www.w3.org/2000/svg"><path clip-rule="evenodd" d="m7.14484 4.79944c-.10141-.12877-.26721-.18869-.42752-.15451l-.42473.09055c-.0785.01674-.14634.06573-.1869.135l-.1238.21136c-2.06688 3.52905-2.90655 7.64336-2.38781 11.70006.03361.2629.20783.4865.45447.5834l3.12539 1.2277c.14678.0576.30178.0659.44573.032-.35012-.3474-.47489-.8852-.27348-1.3686.26552-.6372.99736-.9386 1.63462-.673 2.39999 1 5.09999 1 7.49999 0 .6373-.2656 1.3691.0358 1.6346.673.19.4561.0897.9605-.2162 1.3079l3.0523-1.199c.2467-.0969.4209-.3205.4545-.5834.5187-4.0567-.3209-8.17101-2.3878-11.70006l-.1238-.21136c-.0406-.06927-.1084-.11826-.1869-.135l-.4247-.09055c-.1603-.03418-.3261.02574-.4276.15451l-.9799 1.24426-1.4523-.66042c-.9179-.41741-1.9146-.63339-2.9229-.6334-1.0084.00001-2.0051.21599-2.92302.6334l-1.45229.66042zm7.67426 14.85466c.8299 1.2916 2.4684 1.8364 3.9211 1.2658l3.1254-1.2277c1.0964-.4307 1.8708-1.4247 2.0202-2.5932.5888-4.6047-.3643-9.27483-2.7104-13.28061l-.1238-.21136c-.3956-.67551-1.0572-1.15337-1.8228-1.3166l-.4248-.09055c-.9678-.20634-1.965.09073-2.6603.7715-1.1547-.47594-2.3925-.72149-3.6436-.7215l-.0001 1.25v-1.25c-1.2511.00001-2.4889.24556-3.64358.7215-.69534-.68077-1.69255-.97784-2.66038-.7715l-.42473.09055c-.76563.16323-1.42723.64109-1.82286 1.3166l-.1238.21136c-2.3461 4.00578-3.299196 8.67591-2.71038 13.28061.14941 1.1685.92386 2.1625 2.02025 2.5932l3.12539 1.2277c1.48186.5821 3.15698.0035 3.97009-1.3445 1.5121.3153 3.0695.3415 4.5891.0787zm-6.75719-9.141c-.17257.2157-.31187.5605-.31187.9869s.1393.7712.31187.9869c.17073.2134.33359.2631.43813.2631s.26739-.0497.43813-.2631c.17257-.2157.31187-.5605.31187-.9869s-.1393-.7712-.31187-.9869c-.17074-.2134-.33359-.2631-.43813-.2631s-.2674.0497-.43813.2631zm-2.81187.9869c0-1.79635 1.2092-3.74998 3.25-3.74998 2.04076 0 3.24996 1.95363 3.24996 3.74998 0 1.7964-1.2092 3.75-3.24996 3.75-2.0408 0-3.25-1.9536-3.25-3.75zm10.49996 0c0-.4264.1393-.7712.3119-.9869.1707-.2134.3336-.2631.4381-.2631.1046 0 .2674.0497.4382.2631.1725.2157.3118.5605.3118.9869s-.1393.7712-.3118.9869c-.1708.2134-.3336.2631-.4382.2631-.1045 0-.2674-.0497-.4381-.2631-.1726-.2157-.3119-.5605-.3119-.9869zm.75-3.74998c-2.0408 0-3.25 1.95363-3.25 3.74998 0 1.7964 1.2092 3.75 3.25 3.75s3.25-1.9536 3.25-3.75c0-1.79635-1.2092-3.74998-3.25-3.74998z" fill="#672fc3" fill-rule="evenodd"/></svg>