<svg fill="none" height="14" viewBox="0 0 16 14" width="16" xmlns="http://www.w3.org/2000/svg"><g clip-rule="evenodd" fill="#fff" fill-rule="evenodd"><path d="m.75 12c0-.6904.55964-1.25 1.25-1.25h12c.6904 0 1.25.5596 1.25 1.25s-.5596 1.25-1.25 1.25h-12c-.69036 0-1.25-.5596-1.25-1.25z"/><path d="m.75 2c0-.69036.55964-1.25 1.25-1.25h12c.6904 0 1.25.55964 1.25 1.25s-.5596 1.25-1.25 1.25h-12c-.69036 0-1.25-.55964-1.25-1.25z"/><path d="m.75 7c0-.69036.55964-1.25 1.25-1.25h12c.6904 0 1.25.55964 1.25 1.25s-.5596 1.25-1.25 1.25h-12c-.69036 0-1.25-.55964-1.25-1.25z"/></g></svg>