<svg fill="none" height="24" viewBox="0 0 25 24" width="25" xmlns="http://www.w3.org/2000/svg" xmlns:xlink="http://www.w3.org/1999/xlink"><clipPath id="a"><path d="m2.5 2h20v20h-20z"/></clipPath><g clip-path="url(#a)"><path d="m12.5 3.8025c2.67 0 2.9867.01 4.0417.05833 2.71.12334 3.9758 1.40917 4.0991 4.09917.0484 1.05417.0575 1.37083.0575 4.0408 0 2.6709-.01 2.9867-.0575 4.0409-.1241 2.6875-1.3866 3.9758-4.0991 4.0991-1.055.0484-1.37.0584-4.0417.0584-2.67 0-2.98667-.01-4.04083-.0584-2.71667-.1241-3.97584-1.4158-4.09917-4.1-.04833-1.0541-.05833-1.37-.05833-4.0408 0-2.67.01083-2.98583.05833-4.04083.12417-2.68917 1.38667-3.97584 4.09917-4.09917 1.055-.0475 1.37083-.0575 4.04083-.0575zm0-1.8025c-2.71583 0-3.05583.01167-4.1225.06-3.63167.16667-5.65 2.18167-5.81667 5.81667-.04916 1.0675-.06083 1.4075-.06083 4.12333 0 2.7158.01167 3.0567.06 4.1233.16667 3.6317 2.18167 5.65 5.81667 5.8167 1.0675.0483 1.4075.06 4.12333.06 2.7158 0 3.0567-.0117 4.1233-.06 3.6284-.1667 5.6517-2.1817 5.8159-5.8167.0491-1.0666.0608-1.4075.0608-4.1233 0-2.71583-.0117-3.05583-.06-4.1225-.1633-3.62833-2.1808-5.65-5.8158-5.81667-1.0675-.04916-1.4084-.06083-4.1242-.06083zm0 4.865c-2.83583 0-5.135 2.29917-5.135 5.135 0 2.8358 2.29917 5.1358 5.135 5.1358 2.8358 0 5.135-2.2991 5.135-5.1358 0-2.83583-2.2992-5.135-5.135-5.135zm0 8.4683c-1.8408 0-3.33333-1.4916-3.33333-3.3333 0-1.8408 1.49253-3.33333 3.33333-3.33333s3.3333 1.49253 3.3333 3.33333c0 1.8417-1.4925 3.3333-3.3333 3.3333zm5.3383-9.8708c-.6633 0-1.2008.5375-1.2008 1.2s.5375 1.2 1.2008 1.2c.6625 0 1.1992-.5375 1.1992-1.2s-.5367-1.2-1.1992-1.2z" fill="#00005a"/></g></svg>