<svg fill="none" height="28" viewBox="0 0 132 28" width="120" xmlns="http://www.w3.org/2000/svg"><path clip-rule="evenodd" d="m11.5706 3.11972c-.4768-1.23009-1.69463-2.01036-3.01139-1.9294s-2.42983 1.00454-2.75231 2.28376l-4.74843 18.83582c-.409091 1.6227.57478 3.2699 2.19754 3.679s3.2699-.5748 3.679-2.1976l1.52803-6.0613c1.15465 2.8398 3.94146 4.842 7.19596 4.842 3.2553 0 6.0428-2.0033 7.1969-4.8443l1.5286 6.0636c.4091 1.6228 2.0562 2.6067 3.679 2.1976 1.6227-.4091 2.6066-2.0563 2.1975-3.679l-4.7484-18.83582c-.3225-1.27922-1.4356-2.2028-2.7523-2.28376-1.3168-.08096-2.5346.69931-3.0114 1.9294l-1.4992 3.86812c-.059.15228-.1281.29476-.206.42743-.7514-.24221-1.5528-.37305-2.3847-.37305-.8315 0-1.6324.13069-2.3834.37265-.0778-.13256-.1468-.2749-.2058-.42703zm9.0531 13.04708c.163-.6133.1497-1.6058.0309-2.1166-.5079-2.1839-2.5167-3.8771-4.7726-3.8819-2.931-.0063-5.26 2.2362-5.291 5.1773-.0213 2.0198 1.4997 4.1066 3.646 4.1005 1.6315-.0047 3.1427-1.2341 3.1519-3.0669.0042-.8193-.301-2.2645-1.3379-2.2949-.467-.0137-.9879.4413-.9964.9244-.0041.229.0695.4441.1433.6603.0729.2131.146.4272.1455.6565-.0016.6453-.4206 1.0894-1.0224 1.1068-1.252.0362-1.756-1.3063-1.7442-2.3713.0119-1.0727.4305-2.2412 1.2263-2.8518 2.3023-1.7666 5.4663-.7162 6.4144 2.1295.0949.2847.2012 1.1048.1702 1.7909 0 .2496.1796.2496.236.0372zm15.7857-11.91349c1.6735-.00006 3.0302 1.35656 3.0303 3.03009l.0006 16.0192c0 1.6736-1.3566 3.0303-3.0301 3.0304-1.6736 0-3.0303-1.3566-3.0303-3.0301l-.0006-16.01928c-.0001-1.67354 1.3565-3.03025 3.0301-3.03031zm77.1526 0c1.674-.00006 3.031 1.35655 3.031 3.03008v8.00491c0 2.6558 2.153 4.8087 4.809 4.8087s4.809-2.1531 4.809-4.8091v-8.00428c-.001-1.67353 1.356-3.03025 3.03-3.03031 1.673-.00006 3.03 1.35655 3.03 3.03008v8.00431c0 6.0031-4.866 10.8697-10.869 10.8697s-10.869-4.8661-10.869-10.8689l-.001-8.00488c0-1.67353 1.357-3.03025 3.03-3.03031zm-18.0968 3.03009c-.0001-1.67353-1.3568-3.03015-3.0303-3.03009-1.6736.00006-3.0302 1.35677-3.0301 3.03031l.0006 15.99888c-.0002.0261 0 .0522.0005.0782.0091.4867.133.9453.3456 1.3499.179.3417.4259.6538.7376.9146.2628.2205.5635.3972.891.5189.4173.1552.8579.2136 1.2902.1799.3718-.0285.7248-.1241 1.0469-.2747.4625-.2161.8613-.5456 1.1608-.9528l3.7693-5.0793 5.0827 5.2232c1.167 1.1995 3.085 1.2257 4.285.0586 1.199-1.1671 1.225-3.0856.058-4.285l-5.767-5.927 4.311-5.80995c.998-1.34391.717-3.24184-.627-4.23913-1.344-.9973-3.242-.71631-4.239.6276l-6.2856 8.46968zm-19.5903-3.03009c1.1371 0 2.1785.63661 2.6969 1.64864l8.2062 16.01925c.763 1.4895.1741 3.3155-1.3154 4.0785-1.4894.763-3.3154.1741-4.0784-1.3154l-5.5093-10.7546-5.5093 10.7546c-.763 1.4895-2.589 2.0784-4.0785 1.3154-1.4894-.763-2.0783-2.589-1.3153-4.0785l8.2062-16.01925c.5184-1.01203 1.5598-1.64864 2.6969-1.64864zm-33.4762 11.13949c0-5.99397 4.9342-10.86375 10.9339-10.86375h5.3314c1.6735 0 3.0302 1.35667 3.0302 3.0302s-1.3567 3.03015-3.0302 3.03015h-5.3314c-2.647 0-4.8735 2.1509-4.8735 4.8034 0 2.6526 2.2265 4.8034 4.8735 4.8034 1.6432 0 3.6313-.9512 4.3095-2.3331h-4.3095c-1.3947 0-2.5252-1.1306-2.5252-2.5252s1.1305-2.5252 2.5252-2.5252h7.7062c1.7715 0 3.0877 1.4759 3.0877 3.217 0 5.6482-5.1458 10.2269-10.7939 10.2269-5.9997 0-10.9339-4.8698-10.9339-10.8638zm36.5111 7.8337c0 1.6766-1.3592 3.0358-3.0357 3.0358-1.6766 0-3.0358-1.3592-3.0358-3.0358s1.3592-3.0357 3.0358-3.0357c1.6765 0 3.0357 1.3591 3.0357 3.0357z" fill="#00005a" fill-rule="evenodd"/></svg>