<svg fill="none" height="32" viewBox="0 0 160 32" width="160" xmlns="http://www.w3.org/2000/svg" xmlns:xlink="http://www.w3.org/1999/xlink"><linearGradient id="a" gradientUnits="userSpaceOnUse" x1="80.4315" x2="80.4315" y1="5.06629" y2="28.3026"><stop offset="0" stop-color="#ff9d29"/><stop offset="1" stop-color="#f1509e"/></linearGradient><path clip-rule="evenodd" d="m16.3459 3.25279c-.555-1.43203-1.9728-2.340405-3.5057-2.24616-1.533.09425-2.8288 1.16947-3.20421 2.65871l-5.52801 21.92826c-.47626 1.8892.66914 3.8067 2.55833 4.283 1.88918.4762 3.80679-.6692 4.28299-2.5583l1.7788-7.0562c1.3444 3.3058 4.5886 5.6364 8.3772 5.6364 3.79 0 7.0352-2.3323 8.3786-5.6399l1.7797 7.0597c.4763 1.8891 2.3939 3.0345 4.283 2.5583 1.8892-.4763 3.0346-2.3938 2.5584-4.283l-5.528-21.92826c-.3755-1.48924-1.6713-2.56446-3.2042-2.65871-1.533-.094245-2.9507.81413-3.5058 2.24616l-1.7454 4.50319c-.0687.17725-.1491.34309-.2397.49752-.8749-.28206-1.8079-.43441-2.7766-.43441-.9679 0-1.9003.15213-2.7746.43378-.0905-.15425-.1708-.31988-.2394-.49689zm10.5393 15.18901c.1896-.7141.1741-1.8695.0359-2.4641-.5913-2.5425-2.9299-4.5137-5.5562-4.5193-3.4122-.0073-6.1236 2.6033-6.1597 6.0273-.0247 2.3514 1.7459 4.7808 4.2446 4.7737 1.8994-.0054 3.6587-1.4367 3.6694-3.5703.0049-.9539-.3505-2.6364-1.5576-2.6718-.5436-.016-1.15.5137-1.1599 1.0762-.0048.2665.0808.517.1668.7687.0848.2481.17.4974.1694.7643-.0018.7513-.4896 1.2683-1.1903 1.2885-1.4575.0422-2.0443-1.5208-2.0305-2.7606.0138-1.2489.5011-2.6092 1.4276-3.32 2.6803-2.0567 6.3638-.8338 7.4675 2.4791.1104.3314.2343 1.2862.1982 2.085 0 .2906.2091.2906.2748.0433zm18.3775-13.86956c1.9483-.00007 3.5277 1.57927 3.5278 3.52756l.0007 18.6493c0 1.9483-1.5793 3.5277-3.5276 3.5278s-3.5278-1.5793-3.5278-3.5276l-.0007-18.64924c-.0001-1.94829 1.5793-3.52775 3.5276-3.52782zm89.8193 0c1.949-.00007 3.528 1.57927 3.528 3.52756l.001 9.3191c0 3.0918 2.506 5.5982 5.598 5.5982s5.598-2.5066 5.598-5.5986v-9.31844c0-1.94829 1.579-3.52775 3.528-3.52782 1.948-.00007 3.527 1.57927 3.527 3.52756l.001 9.3184c0 6.9887-5.665 12.6543-12.654 12.6543-6.988 0-12.654-5.665-12.654-12.6533v-9.31914c0-1.94829 1.579-3.52775 3.527-3.52782zm-21.068 3.52756c0-1.94829-1.58-3.52763-3.528-3.52756s-3.527 1.57953-3.527 3.52782v18.62464.0183c0 .0296.001.0591.001.0886.012.5249.139 1.0214.356 1.4656.24.4925.599.9363 1.069 1.2854.786.5831 1.734.7908 2.631.6549.259-.039.509-.1062.747-.1985.601-.2323 1.145-.6317 1.557-1.1871l4.399-5.9277 5.917 6.0809c1.359 1.3963 3.592 1.4268 4.988.0681 1.397-1.3587 1.427-3.5921.068-4.9884l-6.714-6.9002 5.019-6.7635c1.161-1.56452.834-3.77405-.73-4.93508-1.565-1.16103-3.775-.83391-4.936.73065l-7.317 9.86023zm-22.8067-3.52756c1.3238 0 2.5361.74112 3.1397 1.91931l9.553 18.64925c.889 1.734.203 3.8598-1.531 4.7481s-3.8596.2027-4.7479-1.5313l-6.4138-12.5203-6.4138 12.5203c-.8883 1.734-3.0141 2.4196-4.7481 1.5313s-2.4196-3.0141-1.5313-4.7481l9.5535-18.64925c.6035-1.17819 1.8159-1.91931 3.1397-1.91931zm-38.9719 12.96846c0-6.9781 5.7443-12.64739 12.729-12.64739h6.2067c1.9483 0 3.5277 1.5794 3.5277 3.52769 0 1.9483-1.5794 3.5277-3.5277 3.5277h-6.2067c-3.0815 0-5.6736 2.5039-5.6736 5.592s2.5921 5.592 5.6736 5.592c1.913 0 4.2274-1.1074 5.017-2.7162h-5.017c-1.6236 0-2.9398-1.3162-2.9398-2.9397 0-1.6236 1.3162-2.9398 2.9398-2.9398h8.9715c2.0622 0 3.5945 1.7181 3.5945 3.7451 0 6.5755-5.9906 11.906-12.566 11.906-6.9847 0-12.729-5.6693-12.729-12.6474zm42.5053 9.1202c0 1.9519-1.5823 3.5342-3.5341 3.5342-1.9519 0-3.5342-1.5823-3.5342-3.5342 0-1.9518 1.5823-3.5341 3.5342-3.5341 1.9518 0 3.5341 1.5823 3.5341 3.5341z" fill="url(#a)" fill-rule="evenodd"/></svg>