<svg fill="none" height="24" viewBox="0 0 25 24" width="25" xmlns="http://www.w3.org/2000/svg" xmlns:xlink="http://www.w3.org/1999/xlink"><clipPath id="a"><path d="m2.5 2h20v20h-20z"/></clipPath><g clip-path="url(#a)"><path d="m22.5 5.79752c-.7358.32667-1.5267.54667-2.3567.64583.8475-.5075 1.4984-1.31166 1.8042-2.27-.7925.47-1.6708.81167-2.6058.99584-.7475-.7975-1.815-1.29584-2.995-1.29584-2.6492 0-4.5959 2.47167-3.9975 5.0375-3.4092-.17083-6.43253-1.80416-8.4567-4.28666-1.075 1.84416-.5575 4.25666 1.26917 5.47831-.67167-.0216-1.305-.20581-1.8575-.51331-.045 1.90081 1.3175 3.67921 3.29083 4.07501-.5775.1567-1.21.1933-1.85333.07.52166 1.63 2.03666 2.8158 3.83333 2.8492-1.725 1.3525-3.89833 1.9566-6.075 1.7 1.81583 1.1641 3.97333 1.8433 6.29 1.8433 7.6183 0 11.9225-6.4342 11.6625-12.20501.8017-.57917 1.4975-1.30167 2.0475-2.12417z" fill="#00005a"/></g></svg>